<?xml version="1.0" encoding="UTF-8" standalone="no"?>
<!-- Created with Inkscape (http://www.inkscape.org/) -->

<svg
   width="200mm"
   height="200mm"
   viewBox="0 0 200 200"
   version="1.1"
   id="svg1"
   xml:space="preserve"
   xmlns:xlink="http://www.w3.org/1999/xlink"
   xmlns="http://www.w3.org/2000/svg"
   xmlns:svg="http://www.w3.org/2000/svg"><defs
     id="defs1"><linearGradient
       id="linearGradient14"><stop
         style="stop-color:#d24444;stop-opacity:1;"
         offset="0"
         id="stop14" /><stop
         style="stop-color:#d10405;stop-opacity:0;"
         offset="0.48318043"
         id="stop15" /></linearGradient><linearGradient
       id="linearGradient13"><stop
         style="stop-color:#ea6868;stop-opacity:1;"
         offset="0"
         id="stop12" /><stop
         style="stop-color:#d10405;stop-opacity:0;"
         offset="1"
         id="stop13" /></linearGradient><linearGradient
       id="linearGradient5"><stop
         style="stop-color:#7c0609;stop-opacity:1;"
         offset="0"
         id="stop5" /><stop
         style="stop-color:#d10405;stop-opacity:0;"
         offset="1"
         id="stop6" /></linearGradient><linearGradient
       id="linearGradient10"><stop
         style="stop-color:#0784b5;stop-opacity:1;"
         offset="0.08423586"
         id="stop10" /><stop
         style="stop-color:#1debf5;stop-opacity:1;"
         offset="1"
         id="stop11" /></linearGradient><linearGradient
       id="linearGradient8"><stop
         style="stop-color:#0985b6;stop-opacity:1;"
         offset="0"
         id="stop8" /><stop
         style="stop-color:#21d5ed;stop-opacity:1;"
         offset="0.99879664"
         id="stop9" /></linearGradient><linearGradient
       xlink:href="#linearGradient8"
       id="linearGradient9"
       x1="101.55039"
       y1="93.911583"
       x2="99.609421"
       y2="166.33713"
       gradientUnits="userSpaceOnUse"
       gradientTransform="matrix(1.1253743,0,0,1.1253743,-13.668786,-17.880873)" /><linearGradient
       xlink:href="#linearGradient10"
       id="linearGradient11"
       x1="109.02384"
       y1="191.75987"
       x2="113.64928"
       y2="77.488319"
       gradientUnits="userSpaceOnUse"
       gradientTransform="matrix(1.1253743,0,0,1.1253743,-13.668786,-17.880873)" /><meshgradient
       id="meshgradient15"
       gradientUnits="userSpaceOnUse"
       x="86.554924"
       y="110.08217"><meshrow
         id="meshrow125"><meshpatch
           id="meshpatch125"><stop
             path="c 4.3075,0  8.61501,0  12.9225,0"
             style="stop-color:#de4845;stop-opacity:1"
             id="stop125" /><stop
             path="c 0,6.89286  0.132,18.9865  0.132,25.8793"
             style="stop-color:#cf4650;stop-opacity:1"
             id="stop126" /><stop
             path="c -4.3075,-3.20611e-05  -8.74701,-5.20077  -13.0545,-5.20077"
             style="stop-color:#c70101;stop-opacity:1"
             id="stop127" /><stop
             path="c 0,-6.89286  0,-13.7857  0,-20.6786"
             style="stop-color:#ac0408;stop-opacity:1"
             id="stop128" /></meshpatch><meshpatch
           id="meshpatch128"><stop
             path="c 4.3075,0  8.61501,0  12.9225,0"
             id="stop129" /><stop
             path="c 0,6.89286  0,13.7857  0,20.6786"
             style="stop-color:#ffffff;stop-opacity:1"
             id="stop130" /><stop
             path="c -4.3075,0  -8.48301,5.20073  -12.7905,5.20074"
             style="stop-color:#770309;stop-opacity:1"
             id="stop131" /></meshpatch></meshrow><meshrow
         id="meshrow131"><meshpatch
           id="meshpatch131"><stop
             path="c 4.4922e-08,6.89283  -0.132,8.58494  -0.132,15.4779"
             id="stop132" /><stop
             path="c -4.3075,0  -8.61501,0  -12.9225,0"
             style="stop-color:#740613;stop-opacity:1"
             id="stop133" /><stop
             path="c 0,-6.89286  0,-13.7857  0,-20.6786"
             style="stop-color:#5f0500;stop-opacity:1"
             id="stop134" /></meshpatch><meshpatch
           id="meshpatch134"><stop
             path="c 0,6.89286  0,13.7857  0,20.6786"
             id="stop135" /><stop
             path="c -4.3075,0  -8.61501,0  -12.9225,2.84217e-14"
             style="stop-color:#620604;stop-opacity:1"
             id="stop136" /></meshpatch></meshrow></meshgradient><linearGradient
       xlink:href="#linearGradient5"
       id="linearGradient6"
       x1="100.78868"
       y1="151.43935"
       x2="112.30365"
       y2="130.76076"
       gradientUnits="userSpaceOnUse"
       gradientTransform="matrix(1.1253743,0,0,1.1253743,-13.668786,-17.880873)" /><linearGradient
       xlink:href="#linearGradient5"
       id="linearGradient7"
       gradientUnits="userSpaceOnUse"
       x1="90.092079"
       y1="143.87149"
       x2="99.609421"
       y2="130.21176"
       gradientTransform="matrix(1.1253743,0,0,1.1253743,-13.668786,-17.880873)" /><linearGradient
       xlink:href="#linearGradient13"
       id="linearGradient12"
       gradientUnits="userSpaceOnUse"
       x1="104.44589"
       y1="117.90515"
       x2="99.609421"
       y2="129.68642"
       gradientTransform="matrix(1.1253743,0,0,1.1253743,-13.668786,-17.880873)" /><radialGradient
       xlink:href="#linearGradient14"
       id="radialGradient15"
       cx="101.01038"
       cy="132.94131"
       fx="101.01038"
       fy="132.94131"
       r="12.874364"
       gradientTransform="matrix(1.1253743,0,0,1.8075572,-13.668786,-107.08361)"
       gradientUnits="userSpaceOnUse" /><linearGradient
       xlink:href="#linearGradient13"
       id="linearGradient15"
       gradientUnits="userSpaceOnUse"
       x1="107.91305"
       y1="123.6012"
       x2="99.609421"
       y2="129.68642"
       gradientTransform="matrix(1.1253743,0,0,1.1253743,-13.668786,-17.880873)" /></defs><g
     id="layer1"
     style="display:none"
     transform="translate(-5,-48.5)"><image
       width="210"
       height="154.93904"
       preserveAspectRatio="none"
       xlink:href="logo.jpeg"
       id="image1"
       x="5.6843419e-14"
       y="71.107483"
       style="display:none" /><image
       width="210"
       height="154.93904"
       preserveAspectRatio="none"
       xlink:href="logo.jpeg"
       id="image8"
       x="7.5939255e-14"
       y="226.04652"
       style="display:none" /></g><g
     id="layer2"
     style="display:none"
     transform="translate(-5,-48.5)"><ellipse
       style="opacity:0.630435;fill:#18683d;stroke-width:0.567825;stroke-linecap:square;paint-order:stroke fill markers"
       id="path1"
       cx="109.02385"
       cy="134.52641"
       rx="55.579365"
       ry="57.233517" /><path
       style="opacity:0.630435;fill:#18683d;stroke-width:0.601133;stroke-linecap:square;paint-order:stroke fill markers"
       d="m 65.165492,99.370781 c 21.002049,-4.394007 38.514238,-8.662121 58.836988,-2.067708 24.01227,7.791607 36.62136,25.111367 26.81889,52.775327 -7.02365,19.82172 -35.33812,27.32129 -55.774573,13.62311 C 77.758523,152.1135 68.878774,130.67839 55.896626,117.71371 l -23.206279,6.85632 26.251339,-47.277135 z"
       id="path2" /><path
       style="opacity:0.630435;fill:#18683d;stroke-width:0.601133;stroke-linecap:square;paint-order:stroke fill markers"
       d="M 101.53853,93.903095 59.189339,50.769099 5.200737,148.5 99.594611,166.34489 C 126.76125,153.34871 129.67494,111.7243 101.53853,93.903095 Z"
       id="path3" /></g><rect
     style="font-variation-settings:'wght' 500;display:none;fill:#000000;stroke-width:0.601133;stroke-linecap:square;paint-order:stroke fill markers"
     id="rect1"
     width="200"
     height="200"
     x="-8.8817842e-16"
     y="0" /><g
     id="layer5"
     transform="translate(-5,-48.5)"><g
       id="g1"
       transform="translate(-4.0238365)"><path
         d="m 100.61341,87.804804 c 31.6431,20.056636 28.36776,66.873056 -2.184311,81.505856 22.363381,11.13769 50.301431,2.3919 57.632501,-18.29741 11.03145,-31.13227 -3.15867,-50.62325 -30.18144,-59.391711 -8.75325,-2.840291 -17.04261,-3.880334 -25.26675,-3.816735 z"
         style="opacity:1;fill:url(#linearGradient9);stroke-width:0.6765;stroke-linecap:square;paint-order:stroke fill markers"
         id="path7" /><path
         d="m 109.02384,69.102633 c -7.66801,0.06069 -15.259897,1.572878 -22.396783,4.461095 -10.537892,4.169806 -19.783518,11.198877 -26.756104,20.341571 14.505737,-3.037243 27.541538,-5.998406 40.742457,-6.100495 8.2241,-0.06359 16.51353,0.976455 25.26675,3.816735 27.02265,8.768431 41.21285,28.259561 30.18144,59.391711 -7.33103,20.68922 -35.26921,29.43506 -57.632501,18.29741 -1.748403,-0.87076 -3.466849,-1.8481 -5.134534,-2.96592 -19.429512,-13.02324 -29.422668,-37.0965 -44.000322,-51.69252 -1.843462,6.10743 -2.793289,12.46359 -2.818207,18.85919 0.04676,9.37809 2.081727,18.6326 5.962666,27.11666 10.227871,22.69217 32.290987,37.23296 56.585138,37.29268 34.54411,1.3e-4 62.54792,-28.83714 62.5478,-64.40934 -1.9e-4,-35.571991 -28.00392,-64.408898 -62.5478,-64.408777 z"
         style="opacity:1;fill:url(#linearGradient11);stroke-width:0.6765;stroke-linecap:square;paint-order:stroke fill markers"
         id="path8" /><path
         id="path11"
         style="opacity:1;fill:#d10405;fill-opacity:1;stroke-width:0.783604;stroke-linecap:square;paint-order:stroke fill markers"
         d="m 83.7379,106.00277 c 19.93136,12.0712 6.880607,19.09184 3.850464,30.05177 -0.244633,0.80415 -0.408851,1.63049 -0.490249,2.46694 -0.04916,0.42634 -0.0823,0.85879 -0.09363,1.29803 2.12e-4,7.02836 5.70936,12.72579 12.75172,12.72556 6.179745,-0.0113 11.462045,-4.44298 12.534795,-10.51682 l 0.0221,0.002 c 0.0113,-0.0803 0.0189,-0.15889 0.0297,-0.23902 1.11579,-7.85298 1.6713,-30.79025 -28.604869,-35.7882 z" /><path
         id="path4"
         style="display:none;opacity:1;fill:url(#meshgradient15);fill-opacity:1;stroke-width:0.696305;stroke-linecap:square;paint-order:stroke fill markers"
         d="m 86.554924,110.08217 c 17.710876,10.72639 6.114061,16.96488 3.421496,26.7038 -0.217379,0.71456 -0.363302,1.44884 -0.435632,2.19211 -0.04368,0.37884 -0.07313,0.76311 -0.0832,1.15342 1.88e-4,6.24535 5.073298,11.30805 11.331092,11.30784 5.49128,-0.01 10.1851,-3.948 11.13834,-9.34517 l 0.0196,0.002 c 0.01,-0.0714 0.0168,-0.14119 0.0264,-0.21239 0.99148,-6.97811 1.4851,-27.36001 -25.418097,-31.80116 z" /><path
         id="path5"
         style="opacity:1;mix-blend-mode:darken;fill:url(#linearGradient6);stroke-width:0.783604;stroke-linecap:square;paint-order:stroke fill markers"
         d="m 83.7379,106.00277 c 19.93136,12.0712 6.880607,19.09184 3.850464,30.05177 -0.244633,0.80415 -0.408851,1.63049 -0.490249,2.46694 -0.04916,0.42634 -0.0823,0.85879 -0.09363,1.29803 2.12e-4,7.02836 5.70936,12.72579 12.75172,12.72556 6.179745,-0.0113 11.462045,-4.44298 12.534795,-10.51682 l 0.0221,0.002 c 0.0113,-0.0803 0.0189,-0.15889 0.0297,-0.23902 1.11579,-7.85298 1.6713,-30.79025 -28.604869,-35.7882 z" /><path
         id="path6"
         style="opacity:1;mix-blend-mode:darken;fill:url(#linearGradient7);stroke-width:0.783604;stroke-linecap:square;paint-order:stroke fill markers"
         d="m 83.7379,106.00277 c 19.93136,12.0712 6.880607,19.09184 3.850464,30.05177 -0.244633,0.80415 -0.408851,1.63049 -0.490249,2.46694 -0.04916,0.42634 -0.0823,0.85879 -0.09363,1.29803 2.12e-4,7.02836 5.70936,12.72579 12.75172,12.72556 6.179745,-0.0113 11.462045,-4.44298 12.534795,-10.51682 l 0.0221,0.002 c 0.0113,-0.0803 0.0189,-0.15889 0.0297,-0.23902 1.11579,-7.85298 1.6713,-30.79025 -28.604869,-35.7882 z" /><path
         id="path9"
         style="opacity:1;mix-blend-mode:lighten;fill:url(#linearGradient12);stroke-width:0.783604;stroke-linecap:square;paint-order:stroke fill markers"
         d="m 83.7379,106.00277 c 19.93136,12.0712 6.880607,19.09184 3.850464,30.05177 -0.244633,0.80415 -0.408851,1.63049 -0.490249,2.46694 -0.04916,0.42634 -0.0823,0.85879 -0.09363,1.29803 2.12e-4,7.02836 5.70936,12.72579 12.75172,12.72556 6.179745,-0.0113 11.462045,-4.44298 12.534795,-10.51682 l 0.0221,0.002 c 0.0113,-0.0803 0.0189,-0.15889 0.0297,-0.23902 1.11579,-7.85298 1.6713,-30.79025 -28.604869,-35.7882 z" /><path
         id="path13"
         style="opacity:1;mix-blend-mode:lighten;fill:url(#radialGradient15);stroke-width:0.783604;stroke-linecap:square;paint-order:stroke fill markers"
         d="m 83.7379,106.00277 c 19.93136,12.0712 6.880607,19.09184 3.850464,30.05177 -0.244633,0.80415 -0.408851,1.63049 -0.490249,2.46694 -0.04916,0.42634 -0.0823,0.85879 -0.09363,1.29803 2.12e-4,7.02836 5.70936,12.72579 12.75172,12.72556 6.179745,-0.0113 11.462045,-4.44298 12.534795,-10.51682 l 0.0221,0.002 c 0.0113,-0.0803 0.0189,-0.15889 0.0297,-0.23902 1.11579,-7.85298 1.6713,-30.79025 -28.604869,-35.7882 z" /><path
         id="path15"
         style="opacity:1;mix-blend-mode:lighten;fill:url(#linearGradient15);stroke-width:0.783604;stroke-linecap:square;paint-order:stroke fill markers"
         d="m 83.7379,106.00277 c 19.93136,12.0712 6.880607,19.09184 3.850464,30.05177 -0.244633,0.80415 -0.408851,1.63049 -0.490249,2.46694 -0.04916,0.42634 -0.0823,0.85879 -0.09363,1.29803 2.12e-4,7.02836 5.70936,12.72579 12.75172,12.72556 6.179745,-0.0113 11.462045,-4.44298 12.534795,-10.51682 l 0.0221,0.002 c 0.0113,-0.0803 0.0189,-0.15889 0.0297,-0.23902 1.11579,-7.85298 1.6713,-30.79025 -28.604869,-35.7882 z" /></g><path
       d="M 22.787233,216.13724 H 21.30292 L 20.394461,214.782 h -6.011716 l -0.903495,1.35524 h -1.489277 l 4.74583,-7.11875 h 1.3056 z m -3.211874,-2.59134 -2.184274,-3.27641 -2.184273,3.27641 z m 11.60147,2.59134 h -7.401708 v -7.11875 h 7.401708 q 0.546068,0 0.992851,0.26807 0.451748,0.26807 0.714853,0.71486 0.26807,0.44678 0.26807,0.99285 v 3.16719 q 0,0.54607 -0.26807,0.99782 -0.263105,0.44678 -0.714853,0.71485 -0.446783,0.26311 -0.992851,0.26311 z m 0,-1.2361 q 0.312748,0 0.526211,-0.21347 0.213463,-0.21346 0.213463,-0.52621 v -3.16719 q 0,-0.30779 -0.213463,-0.52125 -0.213463,-0.21843 -0.526211,-0.21843 h -6.165608 v 4.64655 z m 4.64158,1.2361 h -1.2361 v -7.11875 h 1.2361 z m 9.377484,0 h -7.853456 v -7.11875 h 7.401708 q 0.546069,0 0.992852,0.26807 0.451747,0.26807 0.714853,0.71486 0.26807,0.44678 0.26807,0.99285 0,0.41699 -0.06454,0.71981 -0.05957,0.30282 -0.287927,0.63046 0.377284,0.28297 0.590747,0.70493 0.213463,0.417 0.213463,0.8886 v 0.22339 q 0,0.54607 -0.26807,0.99782 -0.263105,0.44678 -0.714853,0.71485 -0.446783,0.26311 -0.992851,0.26311 z m -0.451748,-4.17494 q 0.312748,0 0.526212,-0.21347 0.213463,-0.21842 0.213463,-0.52621 v -0.22835 q 0,-0.30779 -0.213463,-0.52125 -0.213464,-0.21843 -0.526212,-0.21843 h -6.165608 v 1.70771 z m 0.451748,2.93884 q 0.312748,0 0.526211,-0.21347 0.213463,-0.21346 0.213463,-0.52621 v -0.22339 q 0,-0.31275 -0.213463,-0.52621 -0.213463,-0.21346 -0.526211,-0.21346 h -6.617356 v 1.70274 z m 11.184473,1.2361 h -1.236101 v -5.88265 h -4.070691 v -1.2361 h 9.377483 v 1.2361 h -4.070691 z m 14.009133,0 h -8.702343 v -7.11875 h 8.702343 v 1.2361 h -7.466243 v 1.70771 h 6.557784 v 1.2361 h -6.557784 v 1.70274 h 7.466243 z m 8.712274,0 H 73.67584 q -0.546069,0 -0.997816,-0.26311 -0.446783,-0.26807 -0.714853,-0.71485 -0.263106,-0.45175 -0.263106,-0.99782 v -3.16719 q 0,-0.54607 0.263106,-0.99285 0.26807,-0.44679 0.714853,-0.71486 0.451747,-0.26807 0.997816,-0.26807 h 5.425933 q 0.546068,0 0.992852,0.26807 0.451747,0.26807 0.714853,0.71486 0.26807,0.44678 0.26807,0.99285 v 0.16878 h -1.236101 v -0.16878 q 0,-0.30779 -0.213463,-0.52125 -0.213463,-0.21843 -0.526211,-0.21843 H 73.67584 q -0.312749,0 -0.526212,0.21843 -0.213463,0.21346 -0.213463,0.52125 v 3.16719 q 0,0.31275 0.213463,0.52621 0.213463,0.21347 0.526212,0.21347 h 5.425933 q 0.312748,0 0.526211,-0.21347 0.213463,-0.21346 0.213463,-0.52621 v -0.16382 h 1.236101 v 0.16382 q 0,0.54607 -0.26807,0.99782 -0.263106,0.44678 -0.714853,0.71485 -0.446784,0.26311 -0.992852,0.26311 z m 12.614175,0 h -1.2361 v -2.93884 h -6.905282 v 2.93884 h -1.2361 v -7.11875 h 1.2361 v 2.94381 h 6.905282 v -2.94381 h 1.2361 z m 5.753576,0 h -1.2361 v -7.11875 h 8.702346 v 1.2361 h -7.466246 v 1.9311 h 6.557786 v 1.2361 h -6.557786 z m 17.816716,0 h -1.48431 l -0.90846,-1.35524 h -6.01172 l -0.90349,1.35524 h -1.48928 l 4.74583,-7.11875 h 1.3056 z m -3.21187,-2.59134 -2.18428,-3.27641 -2.18427,3.27641 z m 13.46307,2.59134 h -1.33539 l -1.20135,-2.2637 h -5.49047 v 2.2637 h -1.2361 v -7.11875 h 7.17832 q 0.54607,0 0.99285,0.26807 0.44679,0.26807 0.70989,0.71486 0.26807,0.44678 0.26807,0.99285 v 0.90846 q 0,0.58578 -0.31771,1.07228 -0.31771,0.48649 -0.85882,0.72974 z m -2.08499,-3.4998 q 0.30778,0 0.52125,-0.21347 0.21843,-0.21346 0.21843,-0.52124 v -0.90846 q 0,-0.30779 -0.21843,-0.52125 -0.21347,-0.21843 -0.52125,-0.21843 h -5.94222 v 2.38285 z m 13.62689,3.4998 h -1.2361 v -4.96922 l -3.3757,3.88205 h -1.05739 l -3.37569,-3.88205 v 4.96922 h -1.2361 v -7.11875 h 1.14674 l 3.99623,4.70612 3.99126,-4.70612 h 1.14675 z m 12.53971,0 h -8.02224 v -7.11875 h 1.2361 v 5.88265 h 6.78614 z m 2.52185,0 h -1.2361 v -7.11875 h 1.2361 z m 11.80996,0 h -1.2361 v -4.96922 l -3.37569,3.88205 h -1.05739 l -3.37569,-3.88205 v 4.96922 h -1.2361 v -7.11875 h 1.14674 l 3.99623,4.70612 3.99126,-4.70612 h 1.14674 z m 2.76509,0 h -1.2361 v -7.11875 h 1.2361 z m 6.54289,0 h -1.2361 v -5.88265 h -4.07069 v -1.2361 h 9.37749 v 1.2361 h -4.0707 z m 14.00914,0 h -8.70234 v -7.11875 h 8.70234 v 1.2361 h -7.46624 v 1.70771 h 6.55778 v 1.2361 h -6.55778 v 1.70274 h 7.46624 z m 8.76689,0 h -7.40171 v -7.11875 h 7.40171 q 0.54606,0 0.99285,0.26807 0.45175,0.26807 0.71485,0.71486 0.26807,0.44678 0.26807,0.99285 v 3.16719 q 0,0.54607 -0.26807,0.99782 -0.2631,0.44678 -0.71485,0.71485 -0.44679,0.26311 -0.99285,0.26311 z m 0,-1.2361 q 0.31274,0 0.52621,-0.21347 0.21346,-0.21346 0.21346,-0.52621 v -3.16719 q 0,-0.30779 -0.21346,-0.52125 -0.21347,-0.21843 -0.52621,-0.21843 h -6.16561 v 4.64655 z"
       id="text2116"
       style="font-size:10.1668px;font-family:Technovier;-inkscape-font-specification:'Technovier, @wght=500';font-variation-settings:'wght' 500;stroke-width:0.36092;stroke-linecap:square;paint-order:stroke fill markers"
       aria-label="ADIB TECH FARM LIMITED" /></g><script
     id="mesh_polyfill"
     type="text/javascript">
!function(){const t=&quot;http://www.w3.org/2000/svg&quot;,e=&quot;http://www.w3.org/1999/xlink&quot;,s=&quot;http://www.w3.org/1999/xhtml&quot;,r=2;if(document.createElementNS(t,&quot;meshgradient&quot;).x)return;const n=(t,e,s,r)=&gt;{let n=new x(.5*(e.x+s.x),.5*(e.y+s.y)),o=new x(.5*(t.x+e.x),.5*(t.y+e.y)),i=new x(.5*(s.x+r.x),.5*(s.y+r.y)),a=new x(.5*(n.x+o.x),.5*(n.y+o.y)),h=new x(.5*(n.x+i.x),.5*(n.y+i.y)),l=new x(.5*(a.x+h.x),.5*(a.y+h.y));return[[t,o,a,l],[l,h,i,r]]},o=t=&gt;{let e=t[0].distSquared(t[1]),s=t[2].distSquared(t[3]),r=.25*t[0].distSquared(t[2]),n=.25*t[1].distSquared(t[3]),o=e&gt;s?e:s,i=r&gt;n?r:n;return 18*(o&gt;i?o:i)},i=(t,e)=&gt;Math.sqrt(t.distSquared(e)),a=(t,e)=&gt;t.scale(2/3).add(e.scale(1/3)),h=t=&gt;{let e,s,r,n,o,i,a,h=new g;return t.match(/(\w+\(\s*[^)]+\))+/g).forEach(t=&gt;{let l=t.match(/[\w.-]+/g),d=l.shift();switch(d){case&quot;translate&quot;:2===l.length?e=new g(1,0,0,1,l[0],l[1]):(console.error(&quot;mesh.js: translate does not have 2 arguments!&quot;),e=new g(1,0,0,1,0,0)),h=h.append(e);break;case&quot;scale&quot;:1===l.length?s=new g(l[0],0,0,l[0],0,0):2===l.length?s=new g(l[0],0,0,l[1],0,0):(console.error(&quot;mesh.js: scale does not have 1 or 2 arguments!&quot;),s=new g(1,0,0,1,0,0)),h=h.append(s);break;case&quot;rotate&quot;:if(3===l.length&amp;&amp;(e=new g(1,0,0,1,l[1],l[2]),h=h.append(e)),l[0]){r=l[0]*Math.PI/180;let t=Math.cos(r),e=Math.sin(r);Math.abs(t)&lt;1e-16&amp;&amp;(t=0),Math.abs(e)&lt;1e-16&amp;&amp;(e=0),a=new g(t,e,-e,t,0,0),h=h.append(a)}else console.error(&quot;math.js: No argument to rotate transform!&quot;);3===l.length&amp;&amp;(e=new g(1,0,0,1,-l[1],-l[2]),h=h.append(e));break;case&quot;skewX&quot;:l[0]?(r=l[0]*Math.PI/180,n=Math.tan(r),o=new g(1,0,n,1,0,0),h=h.append(o)):console.error(&quot;math.js: No argument to skewX transform!&quot;);break;case&quot;skewY&quot;:l[0]?(r=l[0]*Math.PI/180,n=Math.tan(r),i=new g(1,n,0,1,0,0),h=h.append(i)):console.error(&quot;math.js: No argument to skewY transform!&quot;);break;case&quot;matrix&quot;:6===l.length?h=h.append(new g(...l)):console.error(&quot;math.js: Incorrect number of arguments for matrix!&quot;);break;default:console.error(&quot;mesh.js: Unhandled transform type: &quot;+d)}}),h},l=t=&gt;{let e=[],s=t.split(/[ ,]+/);for(let t=0,r=s.length-1;t&lt;r;t+=2)e.push(new x(parseFloat(s[t]),parseFloat(s[t+1])));return e},d=(t,e)=&gt;{for(let s in e)t.setAttribute(s,e[s])},c=(t,e,s,r,n)=&gt;{let o,i,a=[0,0,0,0];for(let h=0;h&lt;3;++h)e[h]&lt;t[h]&amp;&amp;e[h]&lt;s[h]||t[h]&lt;e[h]&amp;&amp;s[h]&lt;e[h]?a[h]=0:(a[h]=.5*((e[h]-t[h])/r+(s[h]-e[h])/n),o=Math.abs(3*(e[h]-t[h])/r),i=Math.abs(3*(s[h]-e[h])/n),a[h]&gt;o?a[h]=o:a[h]&gt;i&amp;&amp;(a[h]=i));return a},u=[[1,0,0,0,0,0,0,0,0,0,0,0,0,0,0,0],[0,0,0,0,1,0,0,0,0,0,0,0,0,0,0,0],[-3,3,0,0,-2,-1,0,0,0,0,0,0,0,0,0,0],[2,-2,0,0,1,1,0,0,0,0,0,0,0,0,0,0],[0,0,0,0,0,0,0,0,1,0,0,0,0,0,0,0],[0,0,0,0,0,0,0,0,0,0,0,0,1,0,0,0],[0,0,0,0,0,0,0,0,-3,3,0,0,-2,-1,0,0],[0,0,0,0,0,0,0,0,2,-2,0,0,1,1,0,0],[-3,0,3,0,0,0,0,0,-2,0,-1,0,0,0,0,0],[0,0,0,0,-3,0,3,0,0,0,0,0,-2,0,-1,0],[9,-9,-9,9,6,3,-6,-3,6,-6,3,-3,4,2,2,1],[-6,6,6,-6,-3,-3,3,3,-4,4,-2,2,-2,-2,-1,-1],[2,0,-2,0,0,0,0,0,1,0,1,0,0,0,0,0],[0,0,0,0,2,0,-2,0,0,0,0,0,1,0,1,0],[-6,6,6,-6,-4,-2,4,2,-3,3,-3,3,-2,-1,-2,-1],[4,-4,-4,4,2,2,-2,-2,2,-2,2,-2,1,1,1,1]],f=t=&gt;{let e=[];for(let s=0;s&lt;16;++s){e[s]=0;for(let r=0;r&lt;16;++r)e[s]+=u[s][r]*t[r]}return e},p=(t,e,s)=&gt;{const r=e*e,n=s*s,o=e*e*e,i=s*s*s;return t[0]+t[1]*e+t[2]*r+t[3]*o+t[4]*s+t[5]*s*e+t[6]*s*r+t[7]*s*o+t[8]*n+t[9]*n*e+t[10]*n*r+t[11]*n*o+t[12]*i+t[13]*i*e+t[14]*i*r+t[15]*i*o},y=t=&gt;{let e=[],s=[],r=[];for(let s=0;s&lt;4;++s)e[s]=[],e[s][0]=n(t[0][s],t[1][s],t[2][s],t[3][s]),e[s][1]=[],e[s][1].push(...n(...e[s][0][0])),e[s][1].push(...n(...e[s][0][1])),e[s][2]=[],e[s][2].push(...n(...e[s][1][0])),e[s][2].push(...n(...e[s][1][1])),e[s][2].push(...n(...e[s][1][2])),e[s][2].push(...n(...e[s][1][3]));for(let t=0;t&lt;8;++t){s[t]=[];for(let r=0;r&lt;4;++r)s[t][r]=[],s[t][r][0]=n(e[0][2][t][r],e[1][2][t][r],e[2][2][t][r],e[3][2][t][r]),s[t][r][1]=[],s[t][r][1].push(...n(...s[t][r][0][0])),s[t][r][1].push(...n(...s[t][r][0][1])),s[t][r][2]=[],s[t][r][2].push(...n(...s[t][r][1][0])),s[t][r][2].push(...n(...s[t][r][1][1])),s[t][r][2].push(...n(...s[t][r][1][2])),s[t][r][2].push(...n(...s[t][r][1][3]))}for(let t=0;t&lt;8;++t){r[t]=[];for(let e=0;e&lt;8;++e)r[t][e]=[],r[t][e][0]=s[t][0][2][e],r[t][e][1]=s[t][1][2][e],r[t][e][2]=s[t][2][2][e],r[t][e][3]=s[t][3][2][e]}return r};class x{constructor(t,e){this.x=t||0,this.y=e||0}toString(){return`(x=${this.x}, y=${this.y})`}clone(){return new x(this.x,this.y)}add(t){return new x(this.x+t.x,this.y+t.y)}scale(t){return void 0===t.x?new x(this.x*t,this.y*t):new x(this.x*t.x,this.y*t.y)}distSquared(t){let e=this.x-t.x,s=this.y-t.y;return e*e+s*s}transform(t){let e=this.x*t.a+this.y*t.c+t.e,s=this.x*t.b+this.y*t.d+t.f;return new x(e,s)}}class g{constructor(t,e,s,r,n,o){void 0===t?(this.a=1,this.b=0,this.c=0,this.d=1,this.e=0,this.f=0):(this.a=t,this.b=e,this.c=s,this.d=r,this.e=n,this.f=o)}toString(){return`affine: ${this.a} ${this.c} ${this.e} \n       ${this.b} ${this.d} ${this.f}`}append(t){t instanceof g||console.error(&quot;mesh.js: argument to Affine.append is not affine!&quot;);let e=this.a*t.a+this.c*t.b,s=this.b*t.a+this.d*t.b,r=this.a*t.c+this.c*t.d,n=this.b*t.c+this.d*t.d,o=this.a*t.e+this.c*t.f+this.e,i=this.b*t.e+this.d*t.f+this.f;return new g(e,s,r,n,o,i)}}class w{constructor(t,e){this.nodes=t,this.colors=e}paintCurve(t,e){if(o(this.nodes)&gt;r){const s=n(...this.nodes);let r=[[],[]],o=[[],[]];for(let t=0;t&lt;4;++t)r[0][t]=this.colors[0][t],r[1][t]=(this.colors[0][t]+this.colors[1][t])/2,o[0][t]=r[1][t],o[1][t]=this.colors[1][t];let i=new w(s[0],r),a=new w(s[1],o);i.paintCurve(t,e),a.paintCurve(t,e)}else{let s=Math.round(this.nodes[0].x);if(s&gt;=0&amp;&amp;s&lt;e){let r=4*(~~this.nodes[0].y*e+s);t[r]=Math.round(this.colors[0][0]),t[r+1]=Math.round(this.colors[0][1]),t[r+2]=Math.round(this.colors[0][2]),t[r+3]=Math.round(this.colors[0][3])}}}}class m{constructor(t,e){this.nodes=t,this.colors=e}split(){let t=[[],[],[],[]],e=[[],[],[],[]],s=[[[],[]],[[],[]]],r=[[[],[]],[[],[]]];for(let s=0;s&lt;4;++s){const r=n(this.nodes[0][s],this.nodes[1][s],this.nodes[2][s],this.nodes[3][s]);t[0][s]=r[0][0],t[1][s]=r[0][1],t[2][s]=r[0][2],t[3][s]=r[0][3],e[0][s]=r[1][0],e[1][s]=r[1][1],e[2][s]=r[1][2],e[3][s]=r[1][3]}for(let t=0;t&lt;4;++t)s[0][0][t]=this.colors[0][0][t],s[0][1][t]=this.colors[0][1][t],s[1][0][t]=(this.colors[0][0][t]+this.colors[1][0][t])/2,s[1][1][t]=(this.colors[0][1][t]+this.colors[1][1][t])/2,r[0][0][t]=s[1][0][t],r[0][1][t]=s[1][1][t],r[1][0][t]=this.colors[1][0][t],r[1][1][t]=this.colors[1][1][t];return[new m(t,s),new m(e,r)]}paint(t,e){let s,n=!1;for(let t=0;t&lt;4;++t)if((s=o([this.nodes[0][t],this.nodes[1][t],this.nodes[2][t],this.nodes[3][t]]))&gt;r){n=!0;break}if(n){let s=this.split();s[0].paint(t,e),s[1].paint(t,e)}else{new w([...this.nodes[0]],[...this.colors[0]]).paintCurve(t,e)}}}class b{constructor(t){this.readMesh(t),this.type=t.getAttribute(&quot;type&quot;)||&quot;bilinear&quot;}readMesh(t){let e=[[]],s=[[]],r=Number(t.getAttribute(&quot;x&quot;)),n=Number(t.getAttribute(&quot;y&quot;));e[0][0]=new x(r,n);let o=t.children;for(let t=0,r=o.length;t&lt;r;++t){e[3*t+1]=[],e[3*t+2]=[],e[3*t+3]=[],s[t+1]=[];let r=o[t].children;for(let n=0,o=r.length;n&lt;o;++n){let o=r[n].children;for(let r=0,i=o.length;r&lt;i;++r){let i=r;0!==t&amp;&amp;++i;let h,d=o[r].getAttribute(&quot;path&quot;),c=&quot;l&quot;;null!=d&amp;&amp;(c=(h=d.match(/\s*([lLcC])\s*(.*)/))[1]);let u=l(h[2]);switch(c){case&quot;l&quot;:0===i?(e[3*t][3*n+3]=u[0].add(e[3*t][3*n]),e[3*t][3*n+1]=a(e[3*t][3*n],e[3*t][3*n+3]),e[3*t][3*n+2]=a(e[3*t][3*n+3],e[3*t][3*n])):1===i?(e[3*t+3][3*n+3]=u[0].add(e[3*t][3*n+3]),e[3*t+1][3*n+3]=a(e[3*t][3*n+3],e[3*t+3][3*n+3]),e[3*t+2][3*n+3]=a(e[3*t+3][3*n+3],e[3*t][3*n+3])):2===i?(0===n&amp;&amp;(e[3*t+3][3*n+0]=u[0].add(e[3*t+3][3*n+3])),e[3*t+3][3*n+1]=a(e[3*t+3][3*n],e[3*t+3][3*n+3]),e[3*t+3][3*n+2]=a(e[3*t+3][3*n+3],e[3*t+3][3*n])):(e[3*t+1][3*n]=a(e[3*t][3*n],e[3*t+3][3*n]),e[3*t+2][3*n]=a(e[3*t+3][3*n],e[3*t][3*n]));break;case&quot;L&quot;:0===i?(e[3*t][3*n+3]=u[0],e[3*t][3*n+1]=a(e[3*t][3*n],e[3*t][3*n+3]),e[3*t][3*n+2]=a(e[3*t][3*n+3],e[3*t][3*n])):1===i?(e[3*t+3][3*n+3]=u[0],e[3*t+1][3*n+3]=a(e[3*t][3*n+3],e[3*t+3][3*n+3]),e[3*t+2][3*n+3]=a(e[3*t+3][3*n+3],e[3*t][3*n+3])):2===i?(0===n&amp;&amp;(e[3*t+3][3*n+0]=u[0]),e[3*t+3][3*n+1]=a(e[3*t+3][3*n],e[3*t+3][3*n+3]),e[3*t+3][3*n+2]=a(e[3*t+3][3*n+3],e[3*t+3][3*n])):(e[3*t+1][3*n]=a(e[3*t][3*n],e[3*t+3][3*n]),e[3*t+2][3*n]=a(e[3*t+3][3*n],e[3*t][3*n]));break;case&quot;c&quot;:0===i?(e[3*t][3*n+1]=u[0].add(e[3*t][3*n]),e[3*t][3*n+2]=u[1].add(e[3*t][3*n]),e[3*t][3*n+3]=u[2].add(e[3*t][3*n])):1===i?(e[3*t+1][3*n+3]=u[0].add(e[3*t][3*n+3]),e[3*t+2][3*n+3]=u[1].add(e[3*t][3*n+3]),e[3*t+3][3*n+3]=u[2].add(e[3*t][3*n+3])):2===i?(e[3*t+3][3*n+2]=u[0].add(e[3*t+3][3*n+3]),e[3*t+3][3*n+1]=u[1].add(e[3*t+3][3*n+3]),0===n&amp;&amp;(e[3*t+3][3*n+0]=u[2].add(e[3*t+3][3*n+3]))):(e[3*t+2][3*n]=u[0].add(e[3*t+3][3*n]),e[3*t+1][3*n]=u[1].add(e[3*t+3][3*n]));break;case&quot;C&quot;:0===i?(e[3*t][3*n+1]=u[0],e[3*t][3*n+2]=u[1],e[3*t][3*n+3]=u[2]):1===i?(e[3*t+1][3*n+3]=u[0],e[3*t+2][3*n+3]=u[1],e[3*t+3][3*n+3]=u[2]):2===i?(e[3*t+3][3*n+2]=u[0],e[3*t+3][3*n+1]=u[1],0===n&amp;&amp;(e[3*t+3][3*n+0]=u[2])):(e[3*t+2][3*n]=u[0],e[3*t+1][3*n]=u[1]);break;default:console.error(&quot;mesh.js: &quot;+c+&quot; invalid path type.&quot;)}if(0===t&amp;&amp;0===n||r&gt;0){let e=window.getComputedStyle(o[r]).stopColor.match(/^rgb\s*\(\s*(\d+)\s*,\s*(\d+)\s*,\s*(\d+)\s*\)$/i),a=window.getComputedStyle(o[r]).stopOpacity,h=255;a&amp;&amp;(h=Math.floor(255*a)),e&amp;&amp;(0===i?(s[t][n]=[],s[t][n][0]=Math.floor(e[1]),s[t][n][1]=Math.floor(e[2]),s[t][n][2]=Math.floor(e[3]),s[t][n][3]=h):1===i?(s[t][n+1]=[],s[t][n+1][0]=Math.floor(e[1]),s[t][n+1][1]=Math.floor(e[2]),s[t][n+1][2]=Math.floor(e[3]),s[t][n+1][3]=h):2===i?(s[t+1][n+1]=[],s[t+1][n+1][0]=Math.floor(e[1]),s[t+1][n+1][1]=Math.floor(e[2]),s[t+1][n+1][2]=Math.floor(e[3]),s[t+1][n+1][3]=h):3===i&amp;&amp;(s[t+1][n]=[],s[t+1][n][0]=Math.floor(e[1]),s[t+1][n][1]=Math.floor(e[2]),s[t+1][n][2]=Math.floor(e[3]),s[t+1][n][3]=h))}}e[3*t+1][3*n+1]=new x,e[3*t+1][3*n+2]=new x,e[3*t+2][3*n+1]=new x,e[3*t+2][3*n+2]=new x,e[3*t+1][3*n+1].x=(-4*e[3*t][3*n].x+6*(e[3*t][3*n+1].x+e[3*t+1][3*n].x)+-2*(e[3*t][3*n+3].x+e[3*t+3][3*n].x)+3*(e[3*t+3][3*n+1].x+e[3*t+1][3*n+3].x)+-1*e[3*t+3][3*n+3].x)/9,e[3*t+1][3*n+2].x=(-4*e[3*t][3*n+3].x+6*(e[3*t][3*n+2].x+e[3*t+1][3*n+3].x)+-2*(e[3*t][3*n].x+e[3*t+3][3*n+3].x)+3*(e[3*t+3][3*n+2].x+e[3*t+1][3*n].x)+-1*e[3*t+3][3*n].x)/9,e[3*t+2][3*n+1].x=(-4*e[3*t+3][3*n].x+6*(e[3*t+3][3*n+1].x+e[3*t+2][3*n].x)+-2*(e[3*t+3][3*n+3].x+e[3*t][3*n].x)+3*(e[3*t][3*n+1].x+e[3*t+2][3*n+3].x)+-1*e[3*t][3*n+3].x)/9,e[3*t+2][3*n+2].x=(-4*e[3*t+3][3*n+3].x+6*(e[3*t+3][3*n+2].x+e[3*t+2][3*n+3].x)+-2*(e[3*t+3][3*n].x+e[3*t][3*n+3].x)+3*(e[3*t][3*n+2].x+e[3*t+2][3*n].x)+-1*e[3*t][3*n].x)/9,e[3*t+1][3*n+1].y=(-4*e[3*t][3*n].y+6*(e[3*t][3*n+1].y+e[3*t+1][3*n].y)+-2*(e[3*t][3*n+3].y+e[3*t+3][3*n].y)+3*(e[3*t+3][3*n+1].y+e[3*t+1][3*n+3].y)+-1*e[3*t+3][3*n+3].y)/9,e[3*t+1][3*n+2].y=(-4*e[3*t][3*n+3].y+6*(e[3*t][3*n+2].y+e[3*t+1][3*n+3].y)+-2*(e[3*t][3*n].y+e[3*t+3][3*n+3].y)+3*(e[3*t+3][3*n+2].y+e[3*t+1][3*n].y)+-1*e[3*t+3][3*n].y)/9,e[3*t+2][3*n+1].y=(-4*e[3*t+3][3*n].y+6*(e[3*t+3][3*n+1].y+e[3*t+2][3*n].y)+-2*(e[3*t+3][3*n+3].y+e[3*t][3*n].y)+3*(e[3*t][3*n+1].y+e[3*t+2][3*n+3].y)+-1*e[3*t][3*n+3].y)/9,e[3*t+2][3*n+2].y=(-4*e[3*t+3][3*n+3].y+6*(e[3*t+3][3*n+2].y+e[3*t+2][3*n+3].y)+-2*(e[3*t+3][3*n].y+e[3*t][3*n+3].y)+3*(e[3*t][3*n+2].y+e[3*t+2][3*n].y)+-1*e[3*t][3*n].y)/9}}this.nodes=e,this.colors=s}paintMesh(t,e){let s=(this.nodes.length-1)/3,r=(this.nodes[0].length-1)/3;if(&quot;bilinear&quot;===this.type||s&lt;2||r&lt;2){let n;for(let o=0;o&lt;s;++o)for(let s=0;s&lt;r;++s){let r=[];for(let t=3*o,e=3*o+4;t&lt;e;++t)r.push(this.nodes[t].slice(3*s,3*s+4));let i=[];i.push(this.colors[o].slice(s,s+2)),i.push(this.colors[o+1].slice(s,s+2)),(n=new m(r,i)).paint(t,e)}}else{let n,o,a,h,l,d,u;const x=s,g=r;s++,r++;let w=new Array(s);for(let t=0;t&lt;s;++t){w[t]=new Array(r);for(let e=0;e&lt;r;++e)w[t][e]=[],w[t][e][0]=this.nodes[3*t][3*e],w[t][e][1]=this.colors[t][e]}for(let t=0;t&lt;s;++t)for(let e=0;e&lt;r;++e)0!==t&amp;&amp;t!==x&amp;&amp;(n=i(w[t-1][e][0],w[t][e][0]),o=i(w[t+1][e][0],w[t][e][0]),w[t][e][2]=c(w[t-1][e][1],w[t][e][1],w[t+1][e][1],n,o)),0!==e&amp;&amp;e!==g&amp;&amp;(n=i(w[t][e-1][0],w[t][e][0]),o=i(w[t][e+1][0],w[t][e][0]),w[t][e][3]=c(w[t][e-1][1],w[t][e][1],w[t][e+1][1],n,o));for(let t=0;t&lt;r;++t){w[0][t][2]=[],w[x][t][2]=[];for(let e=0;e&lt;4;++e)n=i(w[1][t][0],w[0][t][0]),o=i(w[x][t][0],w[x-1][t][0]),w[0][t][2][e]=n&gt;0?2*(w[1][t][1][e]-w[0][t][1][e])/n-w[1][t][2][e]:0,w[x][t][2][e]=o&gt;0?2*(w[x][t][1][e]-w[x-1][t][1][e])/o-w[x-1][t][2][e]:0}for(let t=0;t&lt;s;++t){w[t][0][3]=[],w[t][g][3]=[];for(let e=0;e&lt;4;++e)n=i(w[t][1][0],w[t][0][0]),o=i(w[t][g][0],w[t][g-1][0]),w[t][0][3][e]=n&gt;0?2*(w[t][1][1][e]-w[t][0][1][e])/n-w[t][1][3][e]:0,w[t][g][3][e]=o&gt;0?2*(w[t][g][1][e]-w[t][g-1][1][e])/o-w[t][g-1][3][e]:0}for(let s=0;s&lt;x;++s)for(let r=0;r&lt;g;++r){let n=i(w[s][r][0],w[s+1][r][0]),o=i(w[s][r+1][0],w[s+1][r+1][0]),c=i(w[s][r][0],w[s][r+1][0]),x=i(w[s+1][r][0],w[s+1][r+1][0]),g=[[],[],[],[]];for(let t=0;t&lt;4;++t){(d=[])[0]=w[s][r][1][t],d[1]=w[s+1][r][1][t],d[2]=w[s][r+1][1][t],d[3]=w[s+1][r+1][1][t],d[4]=w[s][r][2][t]*n,d[5]=w[s+1][r][2][t]*n,d[6]=w[s][r+1][2][t]*o,d[7]=w[s+1][r+1][2][t]*o,d[8]=w[s][r][3][t]*c,d[9]=w[s+1][r][3][t]*x,d[10]=w[s][r+1][3][t]*c,d[11]=w[s+1][r+1][3][t]*x,d[12]=0,d[13]=0,d[14]=0,d[15]=0,u=f(d);for(let e=0;e&lt;9;++e){g[t][e]=[];for(let s=0;s&lt;9;++s)g[t][e][s]=p(u,e/8,s/8),g[t][e][s]&gt;255?g[t][e][s]=255:g[t][e][s]&lt;0&amp;&amp;(g[t][e][s]=0)}}h=[];for(let t=3*s,e=3*s+4;t&lt;e;++t)h.push(this.nodes[t].slice(3*r,3*r+4));l=y(h);for(let s=0;s&lt;8;++s)for(let r=0;r&lt;8;++r)(a=new m(l[s][r],[[[g[0][s][r],g[1][s][r],g[2][s][r],g[3][s][r]],[g[0][s][r+1],g[1][s][r+1],g[2][s][r+1],g[3][s][r+1]]],[[g[0][s+1][r],g[1][s+1][r],g[2][s+1][r],g[3][s+1][r]],[g[0][s+1][r+1],g[1][s+1][r+1],g[2][s+1][r+1],g[3][s+1][r+1]]]])).paint(t,e)}}}transform(t){if(t instanceof x)for(let e=0,s=this.nodes.length;e&lt;s;++e)for(let s=0,r=this.nodes[0].length;s&lt;r;++s)this.nodes[e][s]=this.nodes[e][s].add(t);else if(t instanceof g)for(let e=0,s=this.nodes.length;e&lt;s;++e)for(let s=0,r=this.nodes[0].length;s&lt;r;++s)this.nodes[e][s]=this.nodes[e][s].transform(t)}scale(t){for(let e=0,s=this.nodes.length;e&lt;s;++e)for(let s=0,r=this.nodes[0].length;s&lt;r;++s)this.nodes[e][s]=this.nodes[e][s].scale(t)}}document.querySelectorAll(&quot;rect,circle,ellipse,path,text&quot;).forEach((r,n)=&gt;{let o=r.getAttribute(&quot;id&quot;);o||(o=&quot;patchjs_shape&quot;+n,r.setAttribute(&quot;id&quot;,o));const i=r.style.fill.match(/^url\(\s*&quot;?\s*#([^\s&quot;]+)&quot;?\s*\)/),a=r.style.stroke.match(/^url\(\s*&quot;?\s*#([^\s&quot;]+)&quot;?\s*\)/);if(i&amp;&amp;i[1]){const a=document.getElementById(i[1]);if(a&amp;&amp;&quot;meshgradient&quot;===a.nodeName){const i=r.getBBox();let l=document.createElementNS(s,&quot;canvas&quot;);d(l,{width:i.width,height:i.height});const c=l.getContext(&quot;2d&quot;);let u=c.createImageData(i.width,i.height);const f=new b(a);&quot;objectBoundingBox&quot;===a.getAttribute(&quot;gradientUnits&quot;)&amp;&amp;f.scale(new x(i.width,i.height));const p=a.getAttribute(&quot;gradientTransform&quot;);null!=p&amp;&amp;f.transform(h(p)),&quot;userSpaceOnUse&quot;===a.getAttribute(&quot;gradientUnits&quot;)&amp;&amp;f.transform(new x(-i.x,-i.y)),f.paintMesh(u.data,l.width),c.putImageData(u,0,0);const y=document.createElementNS(t,&quot;image&quot;);d(y,{width:i.width,height:i.height,x:i.x,y:i.y});let g=l.toDataURL();y.setAttributeNS(e,&quot;xlink:href&quot;,g),r.parentNode.insertBefore(y,r),r.style.fill=&quot;none&quot;;const w=document.createElementNS(t,&quot;use&quot;);w.setAttributeNS(e,&quot;xlink:href&quot;,&quot;#&quot;+o);const m=&quot;patchjs_clip&quot;+n,M=document.createElementNS(t,&quot;clipPath&quot;);M.setAttribute(&quot;id&quot;,m),M.appendChild(w),r.parentElement.insertBefore(M,r),y.setAttribute(&quot;clip-path&quot;,&quot;url(#&quot;+m+&quot;)&quot;),u=null,l=null,g=null}}if(a&amp;&amp;a[1]){const o=document.getElementById(a[1]);if(o&amp;&amp;&quot;meshgradient&quot;===o.nodeName){const i=parseFloat(r.style.strokeWidth.slice(0,-2))*(parseFloat(r.style.strokeMiterlimit)||parseFloat(r.getAttribute(&quot;stroke-miterlimit&quot;))||1),a=r.getBBox(),l=Math.trunc(a.width+i),c=Math.trunc(a.height+i),u=Math.trunc(a.x-i/2),f=Math.trunc(a.y-i/2);let p=document.createElementNS(s,&quot;canvas&quot;);d(p,{width:l,height:c});const y=p.getContext(&quot;2d&quot;);let g=y.createImageData(l,c);const w=new b(o);&quot;objectBoundingBox&quot;===o.getAttribute(&quot;gradientUnits&quot;)&amp;&amp;w.scale(new x(l,c));const m=o.getAttribute(&quot;gradientTransform&quot;);null!=m&amp;&amp;w.transform(h(m)),&quot;userSpaceOnUse&quot;===o.getAttribute(&quot;gradientUnits&quot;)&amp;&amp;w.transform(new x(-u,-f)),w.paintMesh(g.data,p.width),y.putImageData(g,0,0);const M=document.createElementNS(t,&quot;image&quot;);d(M,{width:l,height:c,x:0,y:0});let S=p.toDataURL();M.setAttributeNS(e,&quot;xlink:href&quot;,S);const k=&quot;pattern_clip&quot;+n,A=document.createElementNS(t,&quot;pattern&quot;);d(A,{id:k,patternUnits:&quot;userSpaceOnUse&quot;,width:l,height:c,x:u,y:f}),A.appendChild(M),o.parentNode.appendChild(A),r.style.stroke=&quot;url(#&quot;+k+&quot;)&quot;,g=null,p=null,S=null}}})}();
</script></svg>
